<svg width="16" height="16" viewBox="0 0 82 82" fill="none" xmlns="http://www.w3.org/2000/svg">
<g clip-path="url(#clip0_1_38)">
<mask id="mask0_1_38" style="mask-type:luminance" maskUnits="userSpaceOnUse" x="0" y="0" width="82" height="82">
<path d="M30.5569 0H31.6314L32.9746 0.134207L34.3849 0.469722L35.6609 0.939443L36.7355 1.47627L37.4742 1.94599L38.3472 2.61702L39.1531 3.35516L39.8919 4.1604L40.6307 5.16694L40.8993 5.63666V5.77087L41.1007 5.70377L41.7052 4.76432L42.5782 3.69067L43.5856 2.68412L44.7273 1.81178L45.7347 1.20786L47.0106 0.671031L48.3538 0.268412L49.5627 0.0671031L50.3686 0H51.5102L52.7862 0.134207L53.995 0.402619L55.2039 0.805238L56.48 1.40916L57.6887 2.2144L58.4275 2.81833L59.1663 3.48936L59.7707 4.22749L60.5094 5.23404L61.3153 6.77741L61.7182 7.85106L62.0541 9.26023L62.1884 10.1997L62.3227 12.347L62.5914 13.6891L62.9943 14.7627L63.5987 15.9034L64.2703 16.7758L64.9418 17.5139L65.8821 18.252L66.7551 18.7888L67.964 19.3257L68.9713 19.5941L69.7772 19.7283L71.8591 19.8625L73.2023 20.0639L74.4112 20.3993L75.8215 21.0033L76.896 21.6072L77.9705 22.4125L78.6421 23.0164L79.3808 23.7545L80.1196 24.761L80.724 25.7676L81.1941 26.7071L81.7314 28.3176L82 29.9951V32.1424L81.7314 33.82L81.1941 35.4305L80.6568 36.5041L80.1196 37.4435L79.3808 38.383L78.5749 39.2554L77.9034 39.8592L76.7616 40.6645L76.2916 40.9329V41.0671L77.0975 41.5368L77.9705 42.2078L78.9779 43.1473L79.7838 44.0867L80.4553 45.0933L81.0597 46.234L81.597 47.6432L81.8656 48.784L82 49.8576V51.9378L81.7314 53.6154L81.1941 55.2259L80.6568 56.2996L80.1867 57.1048L79.6494 57.8429L79.0451 58.581L78.172 59.4534L77.0975 60.2586L75.8215 60.9967L74.5454 61.5336L73.4038 61.8691L71.792 62.1375L70.2473 62.2045L68.837 62.4059L67.6954 62.7414L66.5536 63.2782L65.4791 64.0164L64.6061 64.8217L64.0017 65.4926L63.33 66.5663L62.86 67.5057L62.5241 68.5123L62.3227 69.586L62.1884 71.8003L61.9197 73.3438L61.5168 74.6857L60.9796 75.8936L60.4423 76.833L59.905 77.5712L59.1663 78.4435L58.3604 79.2487L57.2859 80.054L56.2785 80.6579L55.1368 81.1948L54.1294 81.5303L52.5847 81.8657L51.2416 82H50.5028L48.7568 81.7987L47.4807 81.4632L46.4062 81.0606L45.3317 80.5238L44.3915 79.9198L43.7199 79.383L42.7797 78.5106L42.3096 77.9738L41.4366 76.833L41.1007 76.2962V76.162L40.8993 76.3633L40.362 77.1686L39.6233 78.1081L38.8174 78.9803L37.9444 79.7185L36.937 80.3895L35.7953 80.9935L34.5193 81.4632L33.5119 81.7316L32.2358 81.9329L31.4299 82H30.6913L28.9451 81.7987L27.602 81.4632L26.5274 81.0606L25.2514 80.3895L24.1097 79.5843L23.4381 78.9803L22.9009 78.5106L22.2965 77.7725L21.6921 76.9673L21.0877 75.9608L20.5504 74.7528L20.0803 73.2095L19.8788 72.0017L19.8116 71.3977L19.7445 69.8544L19.543 68.6465L19.2072 67.5728L18.67 66.432L17.9312 65.3585L17.5282 64.8887L16.9909 64.419L16.3866 63.8822L15.4464 63.2782L14.3046 62.7414L13.163 62.4059L11.8869 62.2045L10.1409 62.1375L8.86487 61.9361L7.85749 61.6677L6.78296 61.2652L5.70844 60.7283L4.63391 60.0572L3.76085 59.3191L3.22358 58.8494L2.75348 58.3126L2.01474 57.3731L1.47748 56.5008L0.940213 55.4943L0.470106 54.2193L0.134316 52.8772L0 51.7365V49.9918L0.201474 48.5827L0.537264 47.3077L1.07453 46.0327L1.61179 45.0262L2.0819 44.3551L2.61917 43.6841L3.22358 43.013L3.96233 42.2749L5.03686 41.4697L5.7756 41L5.10401 40.5303L4.1638 39.8592L3.3579 39.1211L2.75348 38.5171L2.0819 37.6449L1.47748 36.7054L0.940213 35.6317L0.537264 34.6252L0.201474 33.4173L0 31.9411V30.2635L0.201474 28.7872L0.537264 27.5123L1.14169 26.1031L1.74611 25.0295L2.28337 24.2914L2.82064 23.6203L3.42506 22.9493H3.55938V22.815L4.49959 22.0769L5.37264 21.473L6.44718 20.8691L7.79034 20.3323L9.1335 19.9967L10.0065 19.8625L12.1556 19.7283L13.4316 19.527L14.439 19.1915L15.5135 18.6547L16.4537 18.0507L17.2596 17.3126L17.5955 16.9771L18.1327 16.3731L18.67 15.5008L19.2072 14.4272L19.543 13.2864L19.7445 12.1456L19.8116 10.6694L20.0131 9.12602L20.3489 7.85106L20.7518 6.77741L21.2891 5.70377L21.9607 4.63011L22.6995 3.75778L22.7666 3.62357H22.9009L23.0352 3.35516L23.8411 2.61702L25.0499 1.74468L26.1244 1.14075L27.199 0.671031L28.5422 0.268412L29.751 0.0671031L30.5569 0ZM30.4898 2.68412L29.0795 2.88544L27.6691 3.35516L26.5274 3.95908L25.6544 4.63011L24.8485 5.36824L24.1769 6.17349L23.5054 7.24714L22.9681 8.45499L22.6995 9.46154L22.5651 10.3339L22.4308 12.4812L22.2293 13.6891L21.9607 14.7627L21.4234 16.1048L20.7518 17.3126L20.0803 18.252L19.4086 18.9902L19.0729 19.3928L18.3341 19.9967L17.6626 20.5336L16.3866 21.2717L15.1778 21.8085L14.036 22.144L13.0958 22.3453L11.7527 22.4796L10.4095 22.5466L9.1335 22.748L7.92466 23.1506L6.78296 23.7545L6.04423 24.2914L5.17117 25.0295L4.56674 25.7004L4.09664 26.3715L3.49222 27.4452L3.08927 28.4517L2.82064 29.4582L2.68632 30.6661V31.6055L2.8878 33.0147L3.42506 34.6252L4.09664 35.833L4.83538 36.7725L5.64128 37.5778L6.51433 38.2487L7.45454 38.7856L8.59624 39.2554L9.67076 39.5238L10.7453 39.6579H11.8869L12.9615 39.5238L14.1032 39.1882L15.1778 38.7185L16.1179 38.1817L16.8567 37.5778L17.5282 36.9738L18.1998 36.1686L18.8714 35.0949L19.3415 34.0213L19.6101 33.0819L19.8116 31.8739L19.8788 30.3306L20.1474 28.586L20.5504 27.2439L21.0877 25.9689L21.8936 24.6268L22.7666 23.5532L23.774 22.5466L24.8485 21.7414L25.923 21.1375L27.0647 20.6007L28.3407 20.198L29.8182 19.9296L30.624 19.8625H31.5643L33.3104 20.0639L34.5864 20.3993L35.5938 20.802L37.1385 21.6072L38.1457 22.3453L39.086 23.1506L39.7575 23.8887L40.6307 25.0966L41.4366 26.6399L41.8395 27.7807L42.1752 29.1228L42.3096 30.3306L42.3767 31.8069L42.5782 33.0819L42.914 34.1555L43.5184 35.4305L44.0556 36.2357L44.7944 37.0409L45.6003 37.8462L46.2719 38.3159L47.3465 38.9198L48.6224 39.3895L49.6298 39.5908L50.1671 39.6579H51.846L53.1891 39.3895L54.1965 39.054L55.4726 38.383L56.2113 37.8462L57.0172 37.1751L57.4874 36.6383L58.1589 35.766L58.8305 34.491L59.3005 33.0819L59.4349 32.4108L59.502 31.7398V30.4649L59.3678 29.3912L59.0992 28.3846L58.629 27.2439L58.0918 26.3044L57.5545 25.6334L56.9501 24.9623L56.2113 24.2914L55.2039 23.6203L54.0623 23.0834L52.9877 22.748L51.7788 22.5466L49.5627 22.4125L48.421 22.2112L47.2121 21.8756L45.8018 21.2717L44.8615 20.7348L43.787 19.9296L43.1155 19.3257L42.3767 18.5875L41.638 17.581L41.1007 16.7086L40.4963 15.4337L40.1605 14.4272L39.8248 12.8838L39.6904 11.6088L39.6233 10.2668L39.4218 9.12602L39.086 8.05238L38.5487 6.97872L38.0115 6.17349L37.2727 5.30115L36.7355 4.76432L35.7281 4.02619L34.7879 3.48936L33.579 3.01964L32.3702 2.75123L31.6986 2.68412H30.4898ZM50.4357 2.68412L49.294 2.81833L48.018 3.15385L46.9435 3.62357L46.0033 4.22749L45.3317 4.76432L44.5258 5.56956L43.8543 6.3748L43.2498 7.44844L42.7797 8.5221L42.5111 9.52864L42.3767 10.4681V12.0786L42.5782 13.2864L42.914 14.3601L43.4513 15.5008L43.9885 16.3061L44.5929 17.0442L45.3317 17.7823L46.3391 18.5204L47.6151 19.1915L48.5553 19.527L49.4283 19.7283L51.0401 19.8625L52.4505 19.9967L53.5921 20.198L54.9353 20.6007L56.2785 21.2045L57.4874 21.9428L58.226 22.5466L59.0319 23.2848L59.7035 24.0229L60.5094 25.1636L61.181 26.4387L61.6511 27.7136L61.9869 29.0557L62.1212 29.928L62.1884 31.0687L62.0541 32.7463L61.7182 34.2897L61.2482 35.5646L60.5094 36.9738L59.7707 38.0475L58.8977 39.054L58.0918 39.7922L57.0172 40.5303L55.9427 41.1342L55.0024 41.5368L53.7264 41.9394L52.3161 42.2078L51.6446 42.2749L50.1671 42.3421L48.891 42.5433L47.4807 43.013L46.4733 43.5499L45.7347 44.0867L45.063 44.6907L44.5929 45.0933L43.8543 46.0327L43.2498 47.0392L42.7125 48.3813L42.5111 49.1866L42.3767 50.0589V51.8036L42.7125 53.4812L43.2498 54.7561L43.787 55.6956L44.5258 56.635L45.2645 57.3731L46.2719 58.1113L47.2121 58.6482L48.3538 59.1178L49.5627 59.3863L50.0999 59.4534H51.7788L52.9877 59.252L54.1965 58.8494L55.2711 58.3126L56.077 57.7758L56.9501 57.0377L57.756 56.1653L58.3604 55.2259L58.8977 54.1523L59.2334 53.1456L59.4349 52.1391L59.502 51.5351L59.6364 49.3878L59.905 48.0459L60.2408 46.9722L60.7109 45.8986L61.181 45.0262L61.9869 43.8854L62.9271 42.8789L63.4644 42.3421L64.5389 41.5368L65.6134 40.9329L66.7551 40.396L68.0983 39.9935L69.1728 39.7922L69.7772 39.7251L71.3219 39.6579L72.7321 39.4567L73.8067 39.1211L75.2171 38.4501L76.1572 37.779L77.0303 36.9738L77.1646 36.7054H77.2989L77.9705 35.833L78.6421 34.5581L79.1122 33.1489L79.3137 32.0753V30.0622L79.0451 28.7201L78.5749 27.4452L77.9705 26.3715L77.2989 25.4992L76.493 24.6939L75.6871 24.0229L74.5454 23.3519L73.538 22.9493L72.5979 22.6809L71.6576 22.5466L69.4414 22.4125L68.2326 22.2112L66.688 21.7414L65.1433 21.0033L64.1359 20.3323L63.3973 19.7283L62.6585 19.0572L62.1884 18.5204L61.5168 17.6481L60.9123 16.6415L60.3079 15.3666L59.9722 14.3601L59.6364 12.8167L59.5692 12.1456L59.502 10.6023L59.3005 9.26023L58.9648 8.11948L58.4275 7.04582L57.9574 6.30769L57.4201 5.63666L56.4128 4.63011L55.4726 3.95908L54.1965 3.28805L52.9205 2.88544L52.1818 2.75123L51.376 2.68412H50.4357ZM30.0868 22.5466L28.7436 22.815L27.4676 23.2848L26.3931 23.8887L25.4529 24.6268L24.5126 25.5663L23.8411 26.5057L23.3039 27.4452L22.8337 28.7201L22.6322 29.6596L22.3636 32.8805L22.0278 34.2897L21.5577 35.6317L20.819 37.0409L20.1474 37.9803L19.3415 38.9198L18.8714 39.3895L18.1327 39.9935L16.9238 40.7987L15.3792 41.5368L14.1032 41.9394L12.7601 42.2078L12.1556 42.2749L10.6781 42.3421L9.26781 42.5433L8.19329 42.8789L7.38739 43.2144L6.51433 43.7513L5.64128 44.4222L5.37264 44.6235V44.7578H5.23832V44.8919H5.10401V45.0262H4.96969L4.23096 45.9656L3.62653 46.9722L3.15643 48.0459L2.82064 49.2537L2.68632 50.5286V51.401L2.8878 52.8102L3.22358 53.8838L3.6937 54.9575L4.29811 55.8969L4.90254 56.635L5.70844 57.4402L6.71581 58.1783L7.99181 58.8494L8.99918 59.185L9.9394 59.3863L10.5438 59.4534L12.6257 59.5875L13.9017 59.7888L14.9763 60.1244L15.8493 60.4599L16.9238 60.9967L17.9312 61.6677L18.67 62.2717L19.4759 63.0098L20.0803 63.748L20.7518 64.6874L21.2891 65.6268L21.7592 66.6334L22.1622 67.9084L22.3636 68.8477L22.5651 71.599L22.8337 73.0753L23.3039 74.3503L23.9082 75.4239L24.647 76.3633L25.5872 77.3028L26.5946 78.0409L27.6691 78.5778L28.7436 78.9803L29.5495 79.1817L30.0197 79.2487H32.1687L33.2432 79.0475L34.3849 78.6449L35.4594 78.1081L36.4668 77.437L37.3399 76.6317L37.8771 76.0278L38.5487 75.0213L39.1531 73.7463L39.4889 72.6055L39.6233 71.8003L39.6904 70.5254L39.5561 69.1833L39.2203 67.9084L38.7502 66.7676L38.0786 65.6939L37.4742 64.9558L36.6683 64.1506L35.7281 63.4796L34.6535 62.8756L33.7134 62.5401L32.706 62.2717L31.7658 62.1375L30.0197 62.0704L28.7436 61.8691L27.4676 61.5336L26.0573 60.9296L24.8485 60.2586L23.9754 59.5875L23.1695 58.8494L22.6995 58.3797L21.9607 57.4402L21.3563 56.5008L20.819 55.4272L20.3489 54.1523L20.0803 53.0786L19.8788 51.7365V50.1261L20.0803 48.7169L20.416 47.4419L20.8862 46.234L21.5577 44.9591L22.2965 43.9525L22.9009 43.2144L23.5725 42.5433L24.5126 41.8052L25.5872 41.1342L26.6617 40.5974L27.7362 40.1948L29.1466 39.8592L30.2883 39.7251L31.7658 39.6579L33.109 39.4567L34.5193 38.987L35.5267 38.4501L36.4668 37.779L37.2727 37.0409L37.9444 36.3028L38.6159 35.2962L39.1531 34.1555L39.4889 32.9476L39.6233 32.2095L39.6904 31.4714V30.8003L39.5561 29.5254L39.2203 28.2504L38.7502 27.1768L38.1457 26.1702L37.5414 25.432L37.0041 24.8282L36.0639 24.0901L35.1908 23.5532L34.3849 23.1506L33.1761 22.748L32.0344 22.5466H30.0868ZM30.154 42.3421L28.7436 42.6105L27.6691 43.013L26.7289 43.4829L25.7887 44.1538L24.9828 44.8919L24.3113 45.6302L23.5725 46.7708L23.1024 47.7775L22.6995 49.0524L22.498 50.5286V51.2667L22.6995 52.6759L22.9681 53.6824L23.4381 54.7561L23.9754 55.6956L24.7141 56.635L25.52 57.4402L26.4603 58.1113L27.4005 58.6482L28.5422 59.1178L29.8182 59.3863L30.3554 59.4534L32.4373 59.5875L33.6462 59.7888L34.855 60.1244L36.2653 60.7283L37.2056 61.2652L38.2801 62.0704L39.086 62.8085L39.5561 63.2782L40.4292 64.419L41.1679 65.6939L41.7052 66.9689L42.041 68.1096L42.2425 69.1833L42.3767 71.3977L42.5782 72.7398L43.0484 74.1489L43.6528 75.2897L44.2571 76.0949L44.8615 76.766L45.3317 77.2357L46.1376 77.8397L47.2792 78.5106L48.2866 78.9133L49.3612 79.1817L49.8313 79.2487H52.1146L53.3235 78.9803L54.5995 78.5106L55.7412 77.8397L56.6815 77.1014L57.4874 76.2962L58.226 75.2897L58.7633 74.2831L59.1663 73.2095L59.4349 71.9346L59.502 71.3306L59.6364 69.1833L59.905 67.8412L60.3079 66.6334L60.8452 65.4255L61.3825 64.5532L61.9197 63.815L62.6585 62.9428L63.2629 62.3388L64.2032 61.6007L65.1433 60.9967L66.1507 60.4599L67.1581 60.0572L68.434 59.7218L70.1131 59.5204L71.5234 59.4534L72.7994 59.252L73.8739 58.9166L75.0156 58.3797L75.8215 57.8429L76.6945 57.1048L77.3661 56.4337L78.1048 55.4272L78.6421 54.3535L78.9779 53.4812L79.2465 52.3404L79.3137 51.9378V49.9247L79.0451 48.5827L78.7764 47.7775L78.172 46.5024L77.5004 45.563L76.896 44.8919L76.3587 44.3551L75.4185 43.6841L74.3439 43.0802L73.068 42.6105L72.1277 42.4092L71.5905 42.3421H69.9116L68.7027 42.5433L67.6281 42.8789L66.5536 43.4157L65.6134 44.0197L64.7404 44.8249L64.2032 45.3617L63.4644 46.3683L62.9271 47.3748L62.5241 48.4484L62.3227 49.3878L62.1884 51.1326L61.9869 52.8772L61.6511 54.2864L61.2482 55.3601L60.7109 56.4337L60.1064 57.4402L59.3678 58.3126V58.4468H59.2334L58.7633 58.9836L58.0918 59.5875L56.9501 60.3928L55.4054 61.198L54.0623 61.6677L52.5847 62.0033L51.1745 62.1375L49.6969 62.0704L48.2195 61.802L46.6077 61.2652L45.4661 60.7283L44.3915 60.0572L43.5184 59.3191L42.9811 58.8494L42.2425 58.0442L41.3693 56.8364L40.6978 55.5613L40.2277 54.2864L39.8919 52.8772L39.7575 52.0049L39.6904 50.4615L39.4889 48.9853L39.086 47.6432L38.3472 46.234L37.6757 45.3617L37.4071 45.0262L36.8698 44.5565L36.2653 44.0197L35.3252 43.4157L34.3849 42.946L33.1761 42.5433L32.0344 42.3421H30.154Z" fill="white"/>
</mask>
<g mask="url(#mask0_1_38)">
<path d="M30.5569 0H31.6314L32.9746 0.134207L34.3849 0.469722L35.6609 0.939443L36.7355 1.47627L37.4742 1.94599L38.3472 2.61702L39.1531 3.35516L39.8919 4.1604L40.6307 5.16694L40.8993 5.63666V5.77087L41.1007 5.70377L41.7052 4.76432L42.5782 3.69067L43.5856 2.68412L44.7273 1.81178L45.7347 1.20786L47.0106 0.671031L48.3538 0.268412L49.5627 0.0671031L50.3686 0H51.5102L52.7862 0.134207L53.995 0.402619L55.2039 0.805238L56.48 1.40916L57.6887 2.2144L58.4275 2.81833L59.1663 3.48936L59.7707 4.22749L60.5094 5.23404L61.3153 6.77741L61.7182 7.85106L62.0541 9.26023L62.1884 10.1997L62.3227 12.347L62.5914 13.6891L62.9943 14.7627L63.5987 15.9034L64.2703 16.7758L64.9418 17.5139L65.8821 18.252L66.7551 18.7888L67.964 19.3257L68.9713 19.5941L69.7772 19.7283L71.8591 19.8625L73.2023 20.0639L74.4112 20.3993L75.8215 21.0033L76.896 21.6072L77.9705 22.4125L78.6421 23.0164L79.3808 23.7545L80.1196 24.761L80.724 25.7676L81.1941 26.7071L81.7314 28.3176L82 29.9951V32.1424L81.7314 33.82L81.1941 35.4305L80.6568 36.5041L80.1196 37.4435L79.3808 38.383L78.5749 39.2554L77.9034 39.8592L76.7616 40.6645L76.2916 40.9329V41.0671L77.0975 41.5368L77.9705 42.2078L78.9779 43.1473L79.7838 44.0867L80.4553 45.0933L81.0597 46.234L81.597 47.6432L81.8656 48.784L82 49.8576V51.9378L81.7314 53.6154L81.1941 55.2259L80.6568 56.2996L80.1867 57.1048L79.6494 57.8429L79.0451 58.581L78.172 59.4534L77.0975 60.2586L75.8215 60.9967L74.5454 61.5336L73.4038 61.8691L71.792 62.1375L70.2473 62.2045L68.837 62.4059L67.6954 62.7414L66.5536 63.2782L65.4791 64.0164L64.6061 64.8217L64.0017 65.4926L63.33 66.5663L62.86 67.5057L62.5241 68.5123L62.3227 69.586L62.1884 71.8003L61.9197 73.3438L61.5168 74.6857L60.9796 75.8936L60.4423 76.833L59.905 77.5712L59.1663 78.4435L58.3604 79.2487L57.2859 80.054L56.2785 80.6579L55.1368 81.1948L54.1294 81.5303L52.5847 81.8657L51.2416 82H50.5028L48.7568 81.7987L47.4807 81.4632L46.4062 81.0606L45.3317 80.5238L44.3915 79.9198L43.7199 79.383L42.7797 78.5106L42.3096 77.9738L41.4366 76.833L41.1007 76.2962V76.162L40.8993 76.3633L40.362 77.1686L39.6233 78.1081L38.8174 78.9803L37.9444 79.7185L36.937 80.3895L35.7953 80.9935L34.5193 81.4632L33.5119 81.7316L32.2358 81.9329L31.4299 82H30.6913L28.9451 81.7987L27.602 81.4632L26.5274 81.0606L25.2514 80.3895L24.1097 79.5843L23.4381 78.9803L22.9009 78.5106L22.2965 77.7725L21.6921 76.9673L21.0877 75.9608L20.5504 74.7528L20.0803 73.2095L19.8788 72.0017L19.8116 71.3977L19.7445 69.8544L19.543 68.6465L19.2072 67.5728L18.67 66.432L17.9312 65.3585L17.5282 64.8887L16.9909 64.419L16.3866 63.8822L15.4464 63.2782L14.3046 62.7414L13.163 62.4059L11.8869 62.2045L10.1409 62.1375L8.86487 61.9361L7.85749 61.6677L6.78296 61.2652L5.70844 60.7283L4.63391 60.0572L3.76085 59.3191L3.22358 58.8494L2.75348 58.3126L2.01474 57.3731L1.47748 56.5008L0.940213 55.4943L0.470106 54.2193L0.134316 52.8772L0 51.7365V49.9918L0.201474 48.5827L0.537264 47.3077L1.07453 46.0327L1.61179 45.0262L2.0819 44.3551L2.61917 43.6841L3.22358 43.013L3.96233 42.2749L5.03686 41.4697L5.7756 41L5.10401 40.5303L4.1638 39.8592L3.3579 39.1211L2.75348 38.5171L2.0819 37.6449L1.47748 36.7054L0.940213 35.6317L0.537264 34.6252L0.201474 33.4173L0 31.9411V30.2635L0.201474 28.7872L0.537264 27.5123L1.14169 26.1031L1.74611 25.0295L2.28337 24.2914L2.82064 23.6203L3.42506 22.9493H3.55938V22.815L4.49959 22.0769L5.37264 21.473L6.44718 20.8691L7.79034 20.3323L9.1335 19.9967L10.0065 19.8625L12.1556 19.7283L13.4316 19.527L14.439 19.1915L15.5135 18.6547L16.4537 18.0507L17.2596 17.3126L17.5955 16.9771L18.1327 16.3731L18.67 15.5008L19.2072 14.4272L19.543 13.2864L19.7445 12.1456L19.8116 10.6694L20.0131 9.12602L20.3489 7.85106L20.7518 6.77741L21.2891 5.70377L21.9607 4.63011L22.6995 3.75778L22.7666 3.62357H22.9009L23.0352 3.35516L23.8411 2.61702L25.0499 1.74468L26.1244 1.14075L27.199 0.671031L28.5422 0.268412L29.751 0.0671031L30.5569 0ZM30.4898 2.68412L29.0795 2.88544L27.6691 3.35516L26.5274 3.95908L25.6544 4.63011L24.8485 5.36824L24.1769 6.17349L23.5054 7.24714L22.9681 8.45499L22.6995 9.46154L22.5651 10.3339L22.4308 12.4812L22.2293 13.6891L21.9607 14.7627L21.4234 16.1048L20.7518 17.3126L20.0803 18.252L19.4086 18.9902L19.0729 19.3928L18.3341 19.9967L17.6626 20.5336L16.3866 21.2717L15.1778 21.8085L14.036 22.144L13.0958 22.3453L11.7527 22.4796L10.4095 22.5466L9.1335 22.748L7.92466 23.1506L6.78296 23.7545L6.04423 24.2914L5.17117 25.0295L4.56674 25.7004L4.09664 26.3715L3.49222 27.4452L3.08927 28.4517L2.82064 29.4582L2.68632 30.6661V31.6055L2.8878 33.0147L3.42506 34.6252L4.09664 35.833L4.83538 36.7725L5.64128 37.5778L6.51433 38.2487L7.45454 38.7856L8.59624 39.2554L9.67076 39.5238L10.7453 39.6579H11.8869L12.9615 39.5238L14.1032 39.1882L15.1778 38.7185L16.1179 38.1817L16.8567 37.5778L17.5282 36.9738L18.1998 36.1686L18.8714 35.0949L19.3415 34.0213L19.6101 33.0819L19.8116 31.8739L19.8788 30.3306L20.1474 28.586L20.5504 27.2439L21.0877 25.9689L21.8936 24.6268L22.7666 23.5532L23.774 22.5466L24.8485 21.7414L25.923 21.1375L27.0647 20.6007L28.3407 20.198L29.8182 19.9296L30.624 19.8625H31.5643L33.3104 20.0639L34.5864 20.3993L35.5938 20.802L37.1385 21.6072L38.1457 22.3453L39.086 23.1506L39.7575 23.8887L40.6307 25.0966L41.4366 26.6399L41.8395 27.7807L42.1752 29.1228L42.3096 30.3306L42.3767 31.8069L42.5782 33.0819L42.914 34.1555L43.5184 35.4305L44.0556 36.2357L44.7944 37.0409L45.6003 37.8462L46.2719 38.3159L47.3465 38.9198L48.6224 39.3895L49.6298 39.5908L50.1671 39.6579H51.846L53.1891 39.3895L54.1965 39.054L55.4726 38.383L56.2113 37.8462L57.0172 37.1751L57.4874 36.6383L58.1589 35.766L58.8305 34.491L59.3005 33.0819L59.4349 32.4108L59.502 31.7398V30.4649L59.3678 29.3912L59.0992 28.3846L58.629 27.2439L58.0918 26.3044L57.5545 25.6334L56.9501 24.9623L56.2113 24.2914L55.2039 23.6203L54.0623 23.0834L52.9877 22.748L51.7788 22.5466L49.5627 22.4125L48.421 22.2112L47.2121 21.8756L45.8018 21.2717L44.8615 20.7348L43.787 19.9296L43.1155 19.3257L42.3767 18.5875L41.638 17.581L41.1007 16.7086L40.4963 15.4337L40.1605 14.4272L39.8248 12.8838L39.6904 11.6088L39.6233 10.2668L39.4218 9.12602L39.086 8.05238L38.5487 6.97872L38.0115 6.17349L37.2727 5.30115L36.7355 4.76432L35.7281 4.02619L34.7879 3.48936L33.579 3.01964L32.3702 2.75123L31.6986 2.68412H30.4898ZM50.4357 2.68412L49.294 2.81833L48.018 3.15385L46.9435 3.62357L46.0033 4.22749L45.3317 4.76432L44.5258 5.56956L43.8543 6.3748L43.2498 7.44844L42.7797 8.5221L42.5111 9.52864L42.3767 10.4681V12.0786L42.5782 13.2864L42.914 14.3601L43.4513 15.5008L43.9885 16.3061L44.5929 17.0442L45.3317 17.7823L46.3391 18.5204L47.6151 19.1915L48.5553 19.527L49.4283 19.7283L51.0401 19.8625L52.4505 19.9967L53.5921 20.198L54.9353 20.6007L56.2785 21.2045L57.4874 21.9428L58.226 22.5466L59.0319 23.2848L59.7035 24.0229L60.5094 25.1636L61.181 26.4387L61.6511 27.7136L61.9869 29.0557L62.1212 29.928L62.1884 31.0687L62.0541 32.7463L61.7182 34.2897L61.2482 35.5646L60.5094 36.9738L59.7707 38.0475L58.8977 39.054L58.0918 39.7922L57.0172 40.5303L55.9427 41.1342L55.0024 41.5368L53.7264 41.9394L52.3161 42.2078L51.6446 42.2749L50.1671 42.3421L48.891 42.5433L47.4807 43.013L46.4733 43.5499L45.7347 44.0867L45.063 44.6907L44.5929 45.0933L43.8543 46.0327L43.2498 47.0392L42.7125 48.3813L42.5111 49.1866L42.3767 50.0589V51.8036L42.7125 53.4812L43.2498 54.7561L43.787 55.6956L44.5258 56.635L45.2645 57.3731L46.2719 58.1113L47.2121 58.6482L48.3538 59.1178L49.5627 59.3863L50.0999 59.4534H51.7788L52.9877 59.252L54.1965 58.8494L55.2711 58.3126L56.077 57.7758L56.9501 57.0377L57.756 56.1653L58.3604 55.2259L58.8977 54.1523L59.2334 53.1456L59.4349 52.1391L59.502 51.5351L59.6364 49.3878L59.905 48.0459L60.2408 46.9722L60.7109 45.8986L61.181 45.0262L61.9869 43.8854L62.9271 42.8789L63.4644 42.3421L64.5389 41.5368L65.6134 40.9329L66.7551 40.396L68.0983 39.9935L69.1728 39.7922L69.7772 39.7251L71.3219 39.6579L72.7321 39.4567L73.8067 39.1211L75.2171 38.4501L76.1572 37.779L77.0303 36.9738L77.1646 36.7054H77.2989L77.9705 35.833L78.6421 34.5581L79.1122 33.1489L79.3137 32.0753V30.0622L79.0451 28.7201L78.5749 27.4452L77.9705 26.3715L77.2989 25.4992L76.493 24.6939L75.6871 24.0229L74.5454 23.3519L73.538 22.9493L72.5979 22.6809L71.6576 22.5466L69.4414 22.4125L68.2326 22.2112L66.688 21.7414L65.1433 21.0033L64.1359 20.3323L63.3973 19.7283L62.6585 19.0572L62.1884 18.5204L61.5168 17.6481L60.9123 16.6415L60.3079 15.3666L59.9722 14.3601L59.6364 12.8167L59.5692 12.1456L59.502 10.6023L59.3005 9.26023L58.9648 8.11948L58.4275 7.04582L57.9574 6.30769L57.4201 5.63666L56.4128 4.63011L55.4726 3.95908L54.1965 3.28805L52.9205 2.88544L52.1818 2.75123L51.376 2.68412H50.4357ZM30.0868 22.5466L28.7436 22.815L27.4676 23.2848L26.3931 23.8887L25.4529 24.6268L24.5126 25.5663L23.8411 26.5057L23.3039 27.4452L22.8337 28.7201L22.6322 29.6596L22.3636 32.8805L22.0278 34.2897L21.5577 35.6317L20.819 37.0409L20.1474 37.9803L19.3415 38.9198L18.8714 39.3895L18.1327 39.9935L16.9238 40.7987L15.3792 41.5368L14.1032 41.9394L12.7601 42.2078L12.1556 42.2749L10.6781 42.3421L9.26781 42.5433L8.19329 42.8789L7.38739 43.2144L6.51433 43.7513L5.64128 44.4222L5.37264 44.6235V44.7578H5.23832V44.8919H5.10401V45.0262H4.96969L4.23096 45.9656L3.62653 46.9722L3.15643 48.0459L2.82064 49.2537L2.68632 50.5286V51.401L2.8878 52.8102L3.22358 53.8838L3.6937 54.9575L4.29811 55.8969L4.90254 56.635L5.70844 57.4402L6.71581 58.1783L7.99181 58.8494L8.99918 59.185L9.9394 59.3863L10.5438 59.4534L12.6257 59.5875L13.9017 59.7888L14.9763 60.1244L15.8493 60.4599L16.9238 60.9967L17.9312 61.6677L18.67 62.2717L19.4759 63.0098L20.0803 63.748L20.7518 64.6874L21.2891 65.6268L21.7592 66.6334L22.1622 67.9084L22.3636 68.8477L22.5651 71.599L22.8337 73.0753L23.3039 74.3503L23.9082 75.4239L24.647 76.3633L25.5872 77.3028L26.5946 78.0409L27.6691 78.5778L28.7436 78.9803L29.5495 79.1817L30.0197 79.2487H32.1687L33.2432 79.0475L34.3849 78.6449L35.4594 78.1081L36.4668 77.437L37.3399 76.6317L37.8771 76.0278L38.5487 75.0213L39.1531 73.7463L39.4889 72.6055L39.6233 71.8003L39.6904 70.5254L39.5561 69.1833L39.2203 67.9084L38.7502 66.7676L38.0786 65.6939L37.4742 64.9558L36.6683 64.1506L35.7281 63.4796L34.6535 62.8756L33.7134 62.5401L32.706 62.2717L31.7658 62.1375L30.0197 62.0704L28.7436 61.8691L27.4676 61.5336L26.0573 60.9296L24.8485 60.2586L23.9754 59.5875L23.1695 58.8494L22.6995 58.3797L21.9607 57.4402L21.3563 56.5008L20.819 55.4272L20.3489 54.1523L20.0803 53.0786L19.8788 51.7365V50.1261L20.0803 48.7169L20.416 47.4419L20.8862 46.234L21.5577 44.9591L22.2965 43.9525L22.9009 43.2144L23.5725 42.5433L24.5126 41.8052L25.5872 41.1342L26.6617 40.5974L27.7362 40.1948L29.1466 39.8592L30.2883 39.7251L31.7658 39.6579L33.109 39.4567L34.5193 38.987L35.5267 38.4501L36.4668 37.779L37.2727 37.0409L37.9444 36.3028L38.6159 35.2962L39.1531 34.1555L39.4889 32.9476L39.6233 32.2095L39.6904 31.4714V30.8003L39.5561 29.5254L39.2203 28.2504L38.7502 27.1768L38.1457 26.1702L37.5414 25.432L37.0041 24.8282L36.0639 24.0901L35.1908 23.5532L34.3849 23.1506L33.1761 22.748L32.0344 22.5466H30.0868ZM30.154 42.3421L28.7436 42.6105L27.6691 43.013L26.7289 43.4829L25.7887 44.1538L24.9828 44.8919L24.3113 45.6302L23.5725 46.7708L23.1024 47.7775L22.6995 49.0524L22.498 50.5286V51.2667L22.6995 52.6759L22.9681 53.6824L23.4381 54.7561L23.9754 55.6956L24.7141 56.635L25.52 57.4402L26.4603 58.1113L27.4005 58.6482L28.5422 59.1178L29.8182 59.3863L30.3554 59.4534L32.4373 59.5875L33.6462 59.7888L34.855 60.1244L36.2653 60.7283L37.2056 61.2652L38.2801 62.0704L39.086 62.8085L39.5561 63.2782L40.4292 64.419L41.1679 65.6939L41.7052 66.9689L42.041 68.1096L42.2425 69.1833L42.3767 71.3977L42.5782 72.7398L43.0484 74.1489L43.6528 75.2897L44.2571 76.0949L44.8615 76.766L45.3317 77.2357L46.1376 77.8397L47.2792 78.5106L48.2866 78.9133L49.3612 79.1817L49.8313 79.2487H52.1146L53.3235 78.9803L54.5995 78.5106L55.7412 77.8397L56.6815 77.1014L57.4874 76.2962L58.226 75.2897L58.7633 74.2831L59.1663 73.2095L59.4349 71.9346L59.502 71.3306L59.6364 69.1833L59.905 67.8412L60.3079 66.6334L60.8452 65.4255L61.3825 64.5532L61.9197 63.815L62.6585 62.9428L63.2629 62.3388L64.2032 61.6007L65.1433 60.9967L66.1507 60.4599L67.1581 60.0572L68.434 59.7218L70.1131 59.5204L71.5234 59.4534L72.7994 59.252L73.8739 58.9166L75.0156 58.3797L75.8215 57.8429L76.6945 57.1048L77.3661 56.4337L78.1048 55.4272L78.6421 54.3535L78.9779 53.4812L79.2465 52.3404L79.3137 51.9378V49.9247L79.0451 48.5827L78.7764 47.7775L78.172 46.5024L77.5004 45.563L76.896 44.8919L76.3587 44.3551L75.4185 43.6841L74.3439 43.0802L73.068 42.6105L72.1277 42.4092L71.5905 42.3421H69.9116L68.7027 42.5433L67.6281 42.8789L66.5536 43.4157L65.6134 44.0197L64.7404 44.8249L64.2032 45.3617L63.4644 46.3683L62.9271 47.3748L62.5241 48.4484L62.3227 49.3878L62.1884 51.1326L61.9869 52.8772L61.6511 54.2864L61.2482 55.3601L60.7109 56.4337L60.1064 57.4402L59.3678 58.3126V58.4468H59.2334L58.7633 58.9836L58.0918 59.5875L56.9501 60.3928L55.4054 61.198L54.0623 61.6677L52.5847 62.0033L51.1745 62.1375L49.6969 62.0704L48.2195 61.802L46.6077 61.2652L45.4661 60.7283L44.3915 60.0572L43.5184 59.3191L42.9811 58.8494L42.2425 58.0442L41.3693 56.8364L40.6978 55.5613L40.2277 54.2864L39.8919 52.8772L39.7575 52.0049L39.6904 50.4615L39.4889 48.9853L39.086 47.6432L38.3472 46.234L37.6757 45.3617L37.4071 45.0262L36.8698 44.5565L36.2653 44.0197L35.3252 43.4157L34.3849 42.946L33.1761 42.5433L32.0344 42.3421H30.154Z" fill="#040404" stroke="#040404" stroke-width="542"/>
</g>
</g>
<defs>
<clipPath id="clip0_1_38">
<rect width="82" height="82" fill="white"/>
</clipPath>
</defs>
</svg>
